<svg width="89" height="15" viewBox="0 0 89 15" fill="none" xmlns="http://www.w3.org/2000/svg">
<path d="M9.744 11.84H7.088V10.88H7.056C6.672 11.664 5.616 12.144 4.448 12.144C1.824 12.144 0 10.08 0 7.392C0 4.768 1.904 2.656 4.448 2.656C5.536 2.656 6.544 3.088 7.056 3.904H7.088V2.96H9.744V11.84ZM4.864 9.664C6.112 9.664 7.088 8.672 7.088 7.392C7.088 6.144 6.08 5.136 4.832 5.136C3.616 5.136 2.656 6.144 2.656 7.424C2.656 8.656 3.632 9.664 4.864 9.664Z" fill="white"/>
<path d="M13.4576 11.84H11.7936V0H13.4576V11.84Z" fill="white"/>
<path d="M17.2701 14.8H15.6061V2.976H17.1261V4.336H17.1581C17.9101 3.264 19.0461 2.736 20.3101 2.736C22.9501 2.736 24.9021 4.784 24.9021 7.52C24.9021 10.016 22.9661 12.064 20.4221 12.064C19.0781 12.064 17.8781 11.52 17.3021 10.56H17.2701V14.8ZM20.2461 10.544C21.9581 10.544 23.2381 9.12 23.2381 7.424C23.2381 5.808 21.9581 4.256 20.1821 4.256C18.5181 4.256 17.2381 5.744 17.2381 7.392C17.2381 9.12 18.5181 10.544 20.2461 10.544Z" fill="white"/>
<path d="M28.3989 11.84H26.7349V0H28.3989V11.84ZM34.0629 11.84H31.9829L28.4309 7.248L31.5829 2.976H33.5509L30.3349 7.152L34.0629 11.84Z" fill="white"/>
<path d="M44.5252 11.84H41.8693V10.88H41.8372C41.4533 11.664 40.3973 12.144 39.2293 12.144C36.6053 12.144 34.7812 10.08 34.7812 7.392C34.7812 4.768 36.6853 2.656 39.2293 2.656C40.3173 2.656 41.3252 3.088 41.8372 3.904H41.8693V2.96H44.5252V11.84ZM39.6453 9.664C40.8933 9.664 41.8693 8.672 41.8693 7.392C41.8693 6.144 40.8613 5.136 39.6133 5.136C38.3973 5.136 37.4372 6.144 37.4372 7.424C37.4372 8.656 38.4133 9.664 39.6453 9.664Z" fill="white"/>
<path d="M48.2389 11.84H46.5749V2.976H48.1269V3.776H48.1589C48.5589 3.184 49.2469 2.8 50.4149 2.736V4.448C48.9749 4.496 48.2389 5.376 48.2389 6.864V11.84Z" fill="white"/>
<path d="M60.9159 11.84H58.2599V10.88H58.2279C57.8439 11.664 56.7879 12.144 55.6199 12.144C52.9959 12.144 51.1719 10.08 51.1719 7.392C51.1719 4.768 53.0759 2.656 55.6199 2.656C56.7079 2.656 57.7159 3.088 58.2279 3.904H58.2599V2.96H60.9159V11.84ZM56.0359 9.664C57.2839 9.664 58.2599 8.672 58.2599 7.392C58.2599 6.144 57.2519 5.136 56.0039 5.136C54.7879 5.136 53.8279 6.144 53.8279 7.424C53.8279 8.656 54.8039 9.664 56.0359 9.664Z" fill="white"/>
<path d="M68.1175 5.328H66.4535C66.3735 4.688 66.0055 4.256 65.3175 4.256C64.6775 4.256 64.2775 4.688 64.2775 5.2C64.2775 5.952 65.0455 6.176 65.9255 6.448C67.1735 6.832 68.3255 7.584 68.3255 9.232C68.3255 10.944 67.0775 12.064 65.3495 12.064C63.7495 12.064 62.2135 10.976 62.2135 8.928H63.8775C63.9575 10 64.5015 10.544 65.3815 10.544C66.1495 10.544 66.6615 10.048 66.6615 9.328C66.6615 8.72 66.1975 8.32 65.1575 7.984C62.9815 7.296 62.6135 6.352 62.6135 5.344C62.6135 3.776 63.9415 2.736 65.3975 2.736C66.8695 2.736 68.0695 3.76 68.1175 5.328Z" fill="white"/>
<path d="M78.8508 7.472C78.8188 9.84 76.8347 12.064 74.0027 12.064C71.5067 12.064 69.2828 9.936 69.2828 7.44C69.2828 4.736 71.4108 2.736 74.1308 2.736C76.5788 2.736 78.8828 4.656 78.8508 7.472ZM77.1868 7.376C77.1868 5.648 75.7948 4.256 74.0508 4.256C72.3867 4.256 70.9467 5.664 70.9467 7.392C70.9467 9.072 72.3388 10.544 74.0188 10.544C75.7628 10.544 77.1868 9.168 77.1868 7.376Z" fill="white"/>
<path d="M83.2871 14.8H81.5591L82.8551 11.664L79.3191 2.976H81.1111L83.7191 9.856L86.3911 2.976H88.1831L83.2871 14.8Z" fill="white"/>
</svg>
