<svg width="33" height="33" viewBox="0 0 33 33" fill="none" xmlns="http://www.w3.org/2000/svg">
<g clip-path="url(#clip0_111_205)">
<path d="M11.7305 33.2578C14.7984 33.2578 17.2734 30.7828 17.2734 27.7148V22.1719H11.7305C8.6625 22.1719 6.1875 24.6469 6.1875 27.7148C6.1875 30.7828 8.6625 33.2578 11.7305 33.2578Z" fill="#0ACF83"/>
<path d="M6.1875 16.6289C6.1875 13.5609 8.6625 11.0859 11.7305 11.0859H17.2734V22.1719H11.7305C8.6625 22.1719 6.1875 19.6969 6.1875 16.6289Z" fill="#A259FF"/>
<path d="M6.1875 5.54297C6.1875 2.475 8.6625 0 11.7305 0H17.2734V11.0859H11.7305C8.6625 11.0859 6.1875 8.61094 6.1875 5.54297Z" fill="#F24E1E"/>
<path d="M17.2734 0H22.8164C25.8844 0 28.3594 2.475 28.3594 5.54297C28.3594 8.61094 25.8844 11.0859 22.8164 11.0859H17.2734V0Z" fill="#FF7262"/>
<path d="M28.3594 16.6289C28.3594 19.6969 25.8844 22.1719 22.8164 22.1719C19.7484 22.1719 17.2734 19.6969 17.2734 16.6289C17.2734 13.5609 19.7484 11.0859 22.8164 11.0859C25.8844 11.0859 28.3594 13.5609 28.3594 16.6289Z" fill="#1ABCFE"/>
</g>
<defs>
<clipPath id="clip0_111_205">
<rect width="33" height="33" fill="white"/>
</clipPath>
</defs>
</svg>
